<svg version="1.1" id="Layer_1" xmlns="http://www.w3.org/2000/svg" xmlns:xlink="http://www.w3.org/1999/xlink" x="0px" y="0px"
	 width="100%" viewBox="0 0 295 80" enable-background="new 0 0 295 80" xml:space="preserve">
<path fill="#FFFDFF" opacity="1.000000" stroke="none" 
	d="
M213.000000,81.000000 
	C142.000015,81.000000 71.500046,81.000000 1.000047,81.000000 
	C1.000031,54.333363 1.000031,27.666725 1.000016,1.000065 
	C99.333275,1.000043 197.666550,1.000043 295.999878,1.000022 
	C295.999908,27.666601 295.999908,54.333202 295.999939,80.999901 
	C268.500000,81.000000 241.000000,81.000000 213.000000,81.000000 
M208.021988,59.010475 
	C208.021988,59.010475 208.027939,59.038620 208.547043,58.930111 
	C209.289871,58.966213 210.032715,59.002316 211.289520,59.700314 
	C214.316833,60.031937 217.344147,60.363564 221.124802,60.777710 
	C221.124802,58.300365 220.995804,56.053833 221.154297,53.827778 
	C221.407852,50.266857 219.388611,49.092266 216.637909,50.293011 
	C214.762115,51.111847 213.511108,53.361992 211.336334,54.991032 
	C210.247833,55.616516 209.159332,56.242004 208.030411,56.140636 
	C207.018906,55.157364 206.007385,54.174091 204.318939,52.709274 
	C204.262329,50.501835 204.205704,48.294392 204.934998,46.193378 
	C207.158157,46.359997 209.381317,46.526619 211.750259,46.704166 
	C212.211716,42.398148 212.041443,39.628445 207.034302,39.468925 
	C205.672455,39.425537 204.399872,36.579838 203.437164,34.591801 
	C203.551743,34.057781 203.666306,33.523758 204.360107,32.353962 
	C207.697250,32.187298 211.192230,30.232124 214.025299,34.265770 
	C214.654831,35.162094 219.116394,34.923569 219.781769,33.894207 
	C220.946991,32.091557 220.881683,29.230438 220.598434,26.902002 
	C220.503540,26.121975 218.145035,25.021091 216.866943,25.078848 
	C209.083038,25.430599 201.312317,26.074158 191.926712,26.733488 
	C193.501694,29.971039 194.455032,31.930752 195.401474,34.460953 
	C195.554718,34.975536 195.707947,35.490116 195.733307,36.744244 
	C195.785492,38.835865 195.837677,40.927486 195.684433,43.666809 
	C195.756287,45.158710 195.828156,46.650612 195.900513,48.936638 
	C195.286774,51.298485 194.673035,53.660336 193.378281,56.198421 
	C192.920807,56.128181 192.463318,56.057941 191.922729,55.209930 
	C189.548401,54.016724 186.788864,53.240749 184.912399,51.508305 
	C183.173920,49.903259 182.185593,47.355618 181.241547,45.068424 
	C180.664734,43.670929 180.049438,41.346493 180.739944,40.535656 
	C183.407166,37.403622 186.700623,34.814438 189.529449,31.805550 
	C190.599716,30.667160 191.648514,28.898081 191.552521,27.495502 
	C191.491898,26.609753 189.328384,25.284740 188.047028,25.210478 
	C186.372055,25.113407 184.636749,26.057491 183.048599,26.518480 
	C182.473236,33.184948 178.245041,38.077808 171.938828,39.273052 
	C172.719147,35.993889 170.062271,31.912573 175.093994,30.020166 
	C175.511490,29.863148 175.861053,28.359568 175.602829,27.754457 
	C173.344727,22.462898 168.696854,25.809219 165.177963,25.100100 
	C162.634903,24.587622 161.092163,26.101122 161.257568,28.892008 
	C161.277176,29.222755 161.205673,29.668854 161.387894,29.863964 
	C166.233887,35.053135 163.650192,41.415173 163.932037,47.250786 
	C164.041885,49.525043 162.229187,51.833660 161.688766,54.216560 
	C161.266174,56.079971 161.088196,58.180363 161.566711,59.970978 
	C161.740860,60.622662 164.148651,61.025848 165.500488,60.942734 
	C168.420380,60.763199 171.316437,60.195759 173.735626,59.855465 
	C176.242432,55.387211 167.755722,51.202477 175.080856,47.194271 
	C175.839630,49.925240 175.732193,52.702862 176.065231,55.426632 
	C176.288910,57.256077 177.160278,60.564358 177.701035,60.556042 
	C183.118607,60.472710 188.527710,59.838417 194.265091,60.037758 
	C196.509613,59.670525 198.754135,59.303295 201.615067,59.242733 
	C203.074142,59.093082 204.533203,58.943428 206.495132,58.917694 
	C206.665726,58.944004 206.836319,58.970310 207.145081,59.414467 
	C207.442444,59.286160 207.739792,59.157856 208.021988,59.010475 
M265.534424,45.456253 
	C265.534424,45.456253 265.329071,45.011997 265.362671,44.202126 
	C265.125732,43.439846 264.888763,42.677567 265.193848,41.744514 
	C264.981201,41.202103 264.768555,40.659691 264.971497,39.418201 
	C264.959869,38.611847 264.948242,37.805492 265.020294,36.295834 
	C264.847931,35.868900 264.675598,35.441967 264.754486,34.282928 
	C266.285309,31.544132 267.816162,28.805338 269.753418,25.339401 
	C264.018890,25.339401 259.792480,25.339401 255.520493,25.339401 
	C254.170303,30.301266 256.516846,33.378563 259.852142,36.438442 
	C259.852142,36.438442 259.888153,36.808102 259.245178,37.192390 
	C259.190491,40.117378 259.135803,43.042362 258.991974,46.767727 
	C258.516296,49.834538 259.674438,51.741638 262.575836,52.837513 
	C262.307617,56.044910 267.311615,61.262306 270.287292,60.750408 
	C275.258087,59.895287 279.650116,57.902069 281.019226,52.583473 
	C282.287628,47.655930 282.918427,42.564415 283.834564,37.545948 
	C284.123291,35.964306 284.224243,34.311096 284.770172,32.822308 
	C285.622314,30.498444 286.780670,28.286880 288.270660,25.014439 
	C283.851562,25.014439 281.048889,24.844845 278.282379,25.087545 
	C276.943054,25.205040 274.726593,25.897173 274.562103,26.677794 
	C274.197083,28.410505 274.772980,30.385149 275.162598,32.219234 
	C275.470001,33.665977 276.461823,35.048630 276.467224,36.462345 
	C276.481140,40.108974 276.365417,43.796055 275.801727,47.388569 
	C275.506531,49.270016 274.160095,50.986523 273.288391,52.777519 
	C271.436981,51.797600 269.539886,50.892159 267.757721,49.799343 
	C267.089783,49.389771 266.689117,48.544357 266.141571,47.378620 
	C265.943634,46.900909 265.745728,46.423203 265.534424,45.456253 
M153.872177,54.153103 
	C153.440659,51.118362 153.009155,48.083622 152.845001,44.327129 
	C152.928772,43.672077 152.884949,42.967457 153.117035,42.370022 
	C154.625092,38.488052 151.373825,33.238220 156.681808,30.310680 
	C157.311249,29.963518 157.125214,27.423622 156.669281,26.128172 
	C156.445908,25.493437 154.662796,24.951387 153.710159,25.110966 
	C150.169891,25.704000 146.681351,26.605785 143.117828,27.404087 
	C144.473526,31.911785 145.707489,36.014748 147.162903,40.854000 
	C142.314423,40.854000 138.887924,40.854000 135.014496,40.854000 
	C135.293045,37.508698 134.510300,33.669754 136.069366,31.567905 
	C137.978226,28.994511 138.940536,26.540758 136.151550,25.789930 
	C132.870026,24.906506 128.993484,26.112814 125.434013,26.745258 
	C125.259682,26.776234 125.400299,30.057867 125.846275,31.703306 
	C126.331978,33.495316 127.928894,35.114578 128.017853,36.861279 
	C128.271027,41.832420 128.055283,46.831726 127.898041,51.815975 
	C127.865334,52.852657 127.310135,53.879139 126.960075,54.898075 
	C126.429901,56.441261 125.868469,57.973713 125.320328,59.510731 
	C126.948265,59.979137 128.551437,60.653534 130.211700,60.853111 
	C131.631348,61.023766 133.211853,60.915932 134.544571,60.438358 
	C135.763931,60.001404 137.506622,59.014580 137.643585,58.070560 
	C137.819138,56.860508 136.669327,55.424484 135.996185,54.135113 
	C135.406006,53.004646 134.041306,51.858505 134.169907,50.868916 
	C134.374969,49.291317 135.480576,46.587837 136.301758,46.551704 
	C139.589264,46.407070 143.359375,44.470123 146.241837,48.680977 
	C145.475311,51.115246 144.298782,53.515114 144.090607,55.996223 
	C143.958252,57.573589 144.893829,60.290405 146.005356,60.694351 
	C148.048462,61.436840 150.641510,61.185875 152.884766,60.741039 
	C156.632355,59.997902 156.882904,58.063519 153.872177,54.153103 
M235.095886,43.778893 
	C235.167618,44.877625 235.239349,45.976353 235.194687,47.854530 
	C234.834686,49.827679 234.614136,51.840054 234.073425,53.762375 
	C233.582779,55.506725 232.084915,57.247295 232.308167,58.806690 
	C232.439285,59.722546 235.055435,60.862560 236.567596,60.882999 
	C239.973557,60.929028 243.388062,60.341110 246.700348,60.020725 
	C246.966690,54.180771 246.966690,54.180771 242.888809,52.180103 
	C242.718796,51.093864 242.548798,50.007622 242.617355,48.245983 
	C242.592346,42.815456 242.567352,37.384933 243.097061,31.359070 
	C245.256638,32.106861 247.416229,32.854652 249.575806,33.602444 
	C249.618088,34.087666 249.660355,34.572884 249.702637,35.058102 
	C255.349380,33.449081 252.047821,28.823177 252.985901,24.988989 
	C245.473587,24.988989 238.540100,24.966824 231.606842,24.995224 
	C224.671890,25.023630 224.690048,25.044830 225.042389,31.674290 
	C225.128860,33.301479 225.055267,34.937172 225.055267,36.572224 
	C228.999496,36.502419 228.942856,36.470940 230.808502,33.114117 
	C232.233200,30.550732 233.885361,29.528366 235.322296,33.781208 
	C235.302322,36.842476 235.282333,39.903744 235.095886,43.778893 
M107.477974,26.388575 
	C103.664116,24.591469 102.090080,26.930882 100.343437,30.461636 
	C97.746071,36.153740 98.636299,39.389381 103.609833,42.050503 
	C104.758102,42.301994 105.906372,42.553482 107.506538,43.336090 
	C107.938812,43.578991 108.628532,43.725002 108.762238,44.080269 
	C109.747185,46.697357 110.621117,49.356224 111.529999,52.001934 
	C109.407196,51.674644 107.197876,51.615940 105.179138,50.965614 
	C100.606468,49.492569 98.596703,50.630268 98.198982,55.416855 
	C98.052879,57.175163 98.175415,58.955791 98.175415,61.485813 
	C101.095055,60.572197 103.393173,59.309746 105.709930,59.274567 
	C108.236496,59.236195 110.769608,60.745750 113.319946,60.812431 
	C115.472794,60.868717 118.712158,60.533737 119.639229,59.147324 
	C123.551895,53.295998 121.437027,44.188648 115.357933,41.715450 
	C113.117126,40.803810 111.139244,39.245869 109.092926,37.239193 
	C109.071823,36.496845 109.050720,35.754494 109.408043,34.358185 
	C112.775452,31.702120 115.396996,32.859707 117.511497,36.478176 
	C117.996086,36.590511 118.480675,36.702847 119.752686,36.890347 
	C121.073479,36.012043 123.433395,35.213352 123.507996,34.239574 
	C123.686844,31.905083 122.791740,29.488312 122.330070,27.104746 
	C120.689720,27.558233 119.049370,28.011721 118.840591,28.069441 
	C114.409294,27.610413 111.196754,27.277636 107.477974,26.388575 
M51.844048,60.866390 
	C61.599674,61.338486 63.035847,59.731316 59.716534,51.399384 
	C59.477074,50.198795 59.237617,48.998203 59.735313,47.717056 
	C63.558640,45.734325 65.297424,47.779160 66.231720,51.161659 
	C66.629074,52.600227 66.693756,54.129013 67.066795,55.576286 
	C68.066628,59.455341 70.239738,62.150074 74.425957,59.951927 
	C76.966629,58.617840 78.849350,56.030712 81.110916,54.884125 
	C81.269249,56.823811 81.427582,58.763493 81.625519,61.188404 
	C86.831650,60.800285 91.708649,60.436703 96.372482,60.089012 
	C98.017380,54.102161 94.130951,52.627522 91.375168,51.839725 
	C91.602516,48.076420 91.719650,44.991627 91.994904,41.921013 
	C92.243233,39.150768 91.692055,34.912331 93.199570,33.924164 
	C97.080467,31.380270 95.741508,28.518698 95.753418,25.341551 
	C90.962692,25.341551 86.594353,25.341551 82.151138,25.341551 
	C83.398399,34.632862 84.592972,43.531693 85.741066,52.084267 
	C83.406860,53.062065 82.186058,53.573456 80.728638,53.266933 
	C80.469109,51.893433 80.209572,50.519936 79.950035,49.146442 
	C78.192024,50.280933 76.434013,51.415424 74.477531,52.677990 
	C74.202202,51.280159 74.360382,49.533806 73.571609,48.536167 
	C70.712234,44.919655 72.273636,42.520866 74.502274,39.167698 
	C76.036469,36.859379 76.345772,32.412842 75.117149,29.971390 
	C73.930550,27.613420 70.208733,25.603706 67.356918,25.211107 
	C61.997471,24.473299 56.462460,25.010788 50.458141,24.940029 
	C50.292038,25.632244 50.125935,26.324459 49.774151,27.652824 
	C49.817730,28.089382 49.861313,28.525940 49.593563,29.401400 
	C50.062103,29.947449 50.530640,30.493498 51.554668,31.127504 
	C51.928787,31.124632 52.302910,31.121761 52.720932,31.900169 
	C52.855240,32.935730 52.989548,33.971287 52.899445,35.781586 
	C52.951481,36.850056 53.003521,37.918522 52.911224,39.782238 
	C52.941582,40.854843 52.971935,41.927452 52.869686,43.797066 
	C52.679325,46.923641 53.611008,50.945946 52.012466,52.948368 
	C50.047054,55.410351 49.745716,57.385792 50.154316,60.474503 
	C50.154316,60.474503 50.501366,60.774307 50.501366,60.774307 
	C50.501366,60.774307 50.957932,60.730442 51.844048,60.866390 
M47.089455,42.722271 
	C45.710258,41.519241 44.331062,40.316212 42.889286,39.058598 
	C46.962265,31.944895 45.901569,28.688429 37.981808,26.547533 
	C35.718246,25.935642 33.051678,26.940386 30.565056,26.999393 
	C26.488789,27.096123 22.408550,27.025576 17.989756,27.025576 
	C18.506994,29.637518 18.675333,33.557781 19.404993,33.665199 
	C23.589834,34.281284 22.070904,37.261723 22.283752,39.392471 
	C22.629097,42.849575 22.826149,46.334694 22.811293,49.806808 
	C22.806633,50.895847 21.875736,51.964123 21.446064,53.071865 
	C20.702145,54.989777 19.389896,56.997189 19.583031,58.833820 
	C19.675322,59.711483 22.681713,60.905941 24.351490,60.880024 
	C29.809206,60.795307 35.269741,60.323261 40.708958,59.792709 
	C45.187641,59.355843 48.833687,54.585564 48.487957,49.748875 
	C48.335335,47.613724 47.838524,45.503178 47.089455,42.722271 
z"/>
<path fill="#CE41CE" opacity="1.000000" stroke="none" 
	d="
M47.293713,43.051865 
	C47.838524,45.503178 48.335335,47.613724 48.487957,49.748875 
	C48.833687,54.585564 45.187641,59.355843 40.708958,59.792709 
	C35.269741,60.323261 29.809206,60.795307 24.351490,60.880024 
	C22.681713,60.905941 19.675322,59.711483 19.583031,58.833820 
	C19.389896,56.997189 20.702145,54.989777 21.446064,53.071865 
	C21.875736,51.964123 22.806633,50.895847 22.811293,49.806808 
	C22.826149,46.334694 22.629097,42.849575 22.283752,39.392471 
	C22.070904,37.261723 23.589834,34.281284 19.404993,33.665199 
	C18.675333,33.557781 18.506994,29.637518 17.989756,27.025576 
	C22.408550,27.025576 26.488789,27.096123 30.565056,26.999393 
	C33.051678,26.940386 35.718246,25.935642 37.981808,26.547533 
	C45.901569,28.688429 46.962265,31.944895 42.889286,39.058598 
	C44.331062,40.316212 45.710258,41.519241 47.293713,43.051865 
M29.331598,49.086746 
	C28.539953,51.812778 30.146639,52.365807 32.236195,51.983200 
	C34.794037,51.514847 37.292507,50.722240 39.816647,50.069839 
	C39.367027,49.119267 39.122726,47.972248 38.433010,47.251408 
	C35.066116,43.732601 32.503899,47.453030 29.331598,49.086746 
M36.506699,34.182499 
	C35.062943,34.017250 33.548199,33.511101 32.197433,33.792393 
	C31.075329,34.026070 30.146135,35.186115 29.131483,35.935799 
	C30.089771,36.526382 30.983019,37.311543 32.022568,37.659023 
	C33.366974,38.108414 34.828178,38.208382 36.639183,38.529808 
	C36.743526,37.316769 36.850548,36.072582 36.506699,34.182499 
z"/>
<path fill="#CE43CE" opacity="1.000000" stroke="none" 
	d="
M193.939209,59.359352 
	C188.527710,59.838417 183.118607,60.472710 177.701035,60.556042 
	C177.160278,60.564358 176.288910,57.256077 176.065231,55.426632 
	C175.732193,52.702862 175.839630,49.925240 175.080856,47.194271 
	C167.755722,51.202477 176.242432,55.387211 173.735626,59.855465 
	C171.316437,60.195759 168.420380,60.763199 165.500488,60.942734 
	C164.148651,61.025848 161.740860,60.622662 161.566711,59.970978 
	C161.088196,58.180363 161.266174,56.079971 161.688766,54.216560 
	C162.229187,51.833660 164.041885,49.525043 163.932037,47.250786 
	C163.650192,41.415173 166.233887,35.053135 161.387894,29.863964 
	C161.205673,29.668854 161.277176,29.222755 161.257568,28.892008 
	C161.092163,26.101122 162.634903,24.587622 165.177963,25.100100 
	C168.696854,25.809219 173.344727,22.462898 175.602829,27.754457 
	C175.861053,28.359568 175.511490,29.863148 175.093994,30.020166 
	C170.062271,31.912573 172.719147,35.993889 171.938828,39.273052 
	C178.245041,38.077808 182.473236,33.184948 183.048599,26.518480 
	C184.636749,26.057491 186.372055,25.113407 188.047028,25.210478 
	C189.328384,25.284740 191.491898,26.609753 191.552521,27.495502 
	C191.648514,28.898081 190.599716,30.667160 189.529449,31.805550 
	C186.700623,34.814438 183.407166,37.403622 180.739944,40.535656 
	C180.049438,41.346493 180.664734,43.670929 181.241547,45.068424 
	C182.185593,47.355618 183.173920,49.903259 184.912399,51.508305 
	C186.788864,53.240749 189.548401,54.016724 191.946381,55.965538 
	C192.631210,57.608719 193.292404,58.496288 193.942810,59.396492 
	C193.932022,59.409126 193.939209,59.359356 193.939209,59.359352 
z"/>
<path fill="#CD41CD" opacity="1.000000" stroke="none" 
	d="
M50.126507,60.016575 
	C49.745716,57.385792 50.047054,55.410351 52.012466,52.948368 
	C53.611008,50.945946 52.679325,46.923641 53.328087,43.398048 
	C56.036472,42.703510 58.286453,42.407990 60.536430,42.112465 
	C60.560505,41.760571 60.584579,41.408676 60.608654,41.056782 
	C58.090954,40.366852 55.573257,39.676922 53.055557,38.986992 
	C53.003521,37.918522 52.951481,36.850056 53.340263,35.429260 
	C55.468597,35.052128 57.156113,35.027321 58.908699,35.415932 
	C60.880524,40.206100 63.989082,37.811565 66.648705,37.027851 
	C67.457619,36.789478 67.950867,35.479832 68.588692,34.660831 
	C67.720825,34.095001 66.895279,33.143879 65.976349,33.042950 
	C64.018982,32.827961 62.013134,33.054359 59.945461,32.704056 
	C57.468189,31.911787 55.072609,31.515339 52.677029,31.118889 
	C52.302910,31.121761 51.928787,31.124632 51.254765,30.769527 
	C50.604870,29.928534 50.254879,29.445517 49.904892,28.962498 
	C49.861313,28.525940 49.817730,28.089382 50.119263,27.171841 
	C50.643066,26.133232 50.821762,25.575609 51.000454,25.017986 
	C56.462460,25.010788 61.997471,24.473299 67.356918,25.211107 
	C70.208733,25.603706 73.930550,27.613420 75.117149,29.971390 
	C76.345772,32.412842 76.036469,36.859379 74.502274,39.167698 
	C72.273636,42.520866 70.712234,44.919655 73.571609,48.536167 
	C74.360382,49.533806 74.202202,51.280159 74.477531,52.677990 
	C76.434013,51.415424 78.192024,50.280933 79.950043,49.146439 
	C80.209572,50.519936 80.469109,51.893433 80.864105,53.657543 
	C80.999573,54.048153 81.027649,54.006500 81.027649,54.006500 
	C78.849350,56.030712 76.966629,58.617840 74.425957,59.951927 
	C70.239738,62.150074 68.066628,59.455341 67.066795,55.576286 
	C66.693756,54.129013 66.629074,52.600227 66.231720,51.161659 
	C65.297424,47.779160 63.558640,45.734325 59.301338,47.430946 
	C57.911526,46.763275 56.955688,46.381714 55.982899,45.744671 
	C55.657833,45.226372 55.349720,44.963554 55.041603,44.700737 
	C54.908722,44.981056 54.775841,45.261375 54.642952,45.541691 
	C55.095352,45.694412 55.547752,45.847130 56.000332,46.411331 
	C56.000511,48.600132 56.000511,50.377445 56.000511,52.264988 
	C57.495022,52.163563 58.626591,52.086769 59.758163,52.009975 
	C63.035847,59.731316 61.599674,61.338486 51.299870,60.640190 
	C50.583588,60.221954 50.373859,60.089481 50.126507,60.016575 
z"/>
<path fill="#CE45CE" opacity="1.000000" stroke="none" 
	d="
M146.140015,47.995895 
	C143.359375,44.470123 139.589264,46.407070 136.301758,46.551704 
	C135.480576,46.587837 134.374969,49.291317 134.169907,50.868916 
	C134.041306,51.858505 135.406006,53.004646 135.996185,54.135113 
	C136.669327,55.424484 137.819138,56.860508 137.643585,58.070560 
	C137.506622,59.014580 135.763931,60.001404 134.544571,60.438358 
	C133.211853,60.915932 131.631348,61.023766 130.211700,60.853111 
	C128.551437,60.653534 126.948265,59.979137 125.320328,59.510731 
	C125.868469,57.973713 126.429901,56.441261 126.960075,54.898075 
	C127.310135,53.879139 127.865334,52.852657 127.898041,51.815975 
	C128.055283,46.831726 128.271027,41.832420 128.017853,36.861279 
	C127.928894,35.114578 126.331978,33.495316 125.846275,31.703306 
	C125.400299,30.057867 125.259682,26.776234 125.434013,26.745258 
	C128.993484,26.112814 132.870026,24.906506 136.151550,25.789930 
	C138.940536,26.540758 137.978226,28.994511 136.069366,31.567905 
	C134.510300,33.669754 135.293045,37.508698 135.014496,40.854000 
	C138.887924,40.854000 142.314423,40.854000 147.162903,40.854000 
	C145.707489,36.014748 144.473526,31.911785 143.117828,27.404087 
	C146.681351,26.605785 150.169891,25.704000 153.710159,25.110966 
	C154.662796,24.951387 156.445908,25.493437 156.669281,26.128172 
	C157.125214,27.423622 157.311249,29.963518 156.681808,30.310680 
	C151.373825,33.238220 154.625092,38.488052 153.117035,42.370022 
	C152.884949,42.967457 152.928772,43.672077 152.504791,44.789543 
	C151.771133,45.499794 151.377670,45.747627 150.682129,46.147396 
	C148.966690,46.864853 147.553360,47.430374 146.140015,47.995895 
z"/>
<path fill="#CE43CE" opacity="1.000000" stroke="none" 
	d="
M103.344803,41.370461 
	C98.636299,39.389381 97.746071,36.153740 101.013168,30.221893 
	C103.783333,28.969719 105.883774,27.957289 107.984215,26.944859 
	C111.196754,27.277636 114.409294,27.610413 118.840591,28.069441 
	C119.049370,28.011721 120.689720,27.558233 122.330070,27.104748 
	C122.791740,29.488312 123.686844,31.905083 123.507996,34.239574 
	C123.433395,35.213352 121.073479,36.012043 119.246208,36.678318 
	C118.372192,36.300056 118.004654,36.133823 117.637115,35.967590 
	C115.396996,32.859707 112.775452,31.702120 108.926414,34.549225 
	C107.462372,33.954338 106.479950,33.168415 105.184288,32.131905 
	C104.394241,33.600330 103.746010,34.805164 102.963821,36.258987 
	C105.228836,36.901386 107.135139,37.442051 109.041443,37.982712 
	C111.139244,39.245869 113.117126,40.803810 115.357933,41.715450 
	C121.437027,44.188648 123.551895,53.295998 119.639229,59.147324 
	C118.712158,60.533737 115.472794,60.868717 113.319946,60.812431 
	C110.769608,60.745750 108.236496,59.236195 105.709930,59.274567 
	C103.393173,59.309746 101.095055,60.572197 98.175415,61.485813 
	C98.175415,58.955791 98.052879,57.175163 98.198982,55.416855 
	C98.596703,50.630268 100.606468,49.492569 105.179138,50.965614 
	C107.197876,51.615940 109.407196,51.674644 111.529999,52.001938 
	C110.621117,49.356224 109.747185,46.697357 108.762238,44.080269 
	C108.628532,43.725002 107.938812,43.578991 107.170532,42.705048 
	C105.671288,41.839493 104.508041,41.604977 103.344803,41.370461 
z"/>
<path fill="#CE44CE" opacity="1.000000" stroke="none" 
	d="
M266.166595,47.897659 
	C266.689117,48.544357 267.089783,49.389771 267.757721,49.799343 
	C269.539886,50.892159 271.436981,51.797600 273.288391,52.777515 
	C274.160095,50.986523 275.506531,49.270016 275.801727,47.388569 
	C276.365417,43.796055 276.481140,40.108974 276.467224,36.462345 
	C276.461823,35.048630 275.470001,33.665977 275.162598,32.219234 
	C274.772980,30.385149 274.197083,28.410505 274.562103,26.677794 
	C274.726593,25.897173 276.943054,25.205040 278.282379,25.087545 
	C281.048889,24.844845 283.851562,25.014439 288.270660,25.014439 
	C286.780670,28.286880 285.622314,30.498444 284.770172,32.822308 
	C284.224243,34.311096 284.123291,35.964306 283.834564,37.545948 
	C282.918427,42.564415 282.287628,47.655930 281.019226,52.583473 
	C279.650116,57.902069 275.258087,59.895287 270.287292,60.750408 
	C267.311615,61.262306 262.307617,56.044910 262.750671,52.135822 
	C264.005890,50.255306 265.086243,49.076485 266.166595,47.897659 
z"/>
<path fill="#CF46CF" opacity="1.000000" stroke="none" 
	d="
M80.982422,54.066498 
	C82.186058,53.573456 83.406860,53.062065 85.741066,52.084267 
	C84.592972,43.531693 83.398399,34.632862 82.151138,25.341551 
	C86.594353,25.341551 90.962692,25.341551 95.753418,25.341551 
	C95.741508,28.518698 97.080467,31.380270 93.199570,33.924164 
	C91.692055,34.912331 92.243233,39.150768 91.994904,41.921013 
	C91.719650,44.991627 91.602516,48.076420 91.375168,51.839725 
	C94.130951,52.627522 98.017380,54.102161 96.372482,60.089012 
	C91.708649,60.436703 86.831650,60.800285 81.625519,61.188404 
	C81.427582,58.763493 81.269249,56.823811 81.069283,54.445312 
	C81.027649,54.006500 80.999573,54.048153 80.982422,54.066498 
z"/>
<path fill="#CF45CF" opacity="1.000000" stroke="none" 
	d="
M195.889862,43.019108 
	C195.837677,40.927486 195.785492,38.835865 196.063904,36.508514 
	C197.393097,36.445312 198.391693,36.617847 199.390305,36.790379 
	C199.493164,36.303791 199.596008,35.817204 199.698868,35.330616 
	C198.268707,34.850567 196.838547,34.370514 195.408386,33.890465 
	C194.455032,31.930752 193.501694,29.971039 191.926712,26.733488 
	C201.312317,26.074158 209.083038,25.430599 216.866943,25.078848 
	C218.145035,25.021091 220.503540,26.121975 220.598434,26.902002 
	C220.881683,29.230438 220.946991,32.091557 219.781769,33.894207 
	C219.116394,34.923569 214.654831,35.162094 214.025299,34.265770 
	C211.192230,30.232124 207.697250,32.187298 203.749390,32.679600 
	C202.575577,33.408489 202.012482,33.811741 201.449387,34.214989 
	C201.995026,34.483414 202.540680,34.751839 203.086319,35.020264 
	C204.399872,36.579838 205.672455,39.425537 207.034302,39.468925 
	C212.041443,39.628445 212.211716,42.398148 211.750259,46.704166 
	C209.381317,46.526619 207.158157,46.359997 204.280396,45.958099 
	C202.753311,43.484032 201.880798,41.245247 201.145798,38.949829 
	C201.186630,38.925941 201.089966,38.958687 200.697861,39.135841 
	C199.602020,40.515881 198.801620,41.751511 197.649536,42.994888 
	C196.828522,43.008125 196.359192,43.013615 195.889862,43.019108 
z"/>
<path fill="#CE43CE" opacity="1.000000" stroke="none" 
	d="
M235.649338,32.900146 
	C233.885361,29.528366 232.233200,30.550732 230.808502,33.114117 
	C228.942856,36.470940 228.999496,36.502419 225.055267,36.572224 
	C225.055267,34.937172 225.128860,33.301479 225.042389,31.674290 
	C224.690048,25.044830 224.671890,25.023630 231.606842,24.995224 
	C238.540100,24.966824 245.473587,24.988989 252.985901,24.988989 
	C252.047821,28.823177 255.349380,33.449081 249.702637,35.058102 
	C249.660355,34.572884 249.618088,34.087666 249.575806,33.602444 
	C247.416229,32.854652 245.256638,32.106861 242.511520,31.714014 
	C239.833771,32.346020 237.741547,32.623081 235.649338,32.900146 
z"/>
<path fill="#CE44CE" opacity="1.000000" stroke="none" 
	d="
M259.081116,45.967350 
	C259.135803,43.042362 259.190491,40.117378 259.725830,37.245918 
	C260.660980,37.210426 261.115479,37.121410 261.569977,37.032394 
	C260.983032,36.711437 260.396118,36.390476 259.809174,36.069519 
	C256.516846,33.378563 254.170303,30.301266 255.520493,25.339401 
	C259.792480,25.339401 264.018890,25.339401 269.753418,25.339401 
	C267.816162,28.805338 266.285309,31.544132 264.378296,34.719051 
	C264.313629,35.769829 264.625122,36.384483 264.936646,36.999138 
	C264.948242,37.805492 264.959869,38.611847 264.590485,39.906338 
	C264.356903,40.901413 264.504364,41.408352 264.651794,41.915291 
	C264.888763,42.677567 265.125732,43.439846 264.961731,44.601936 
	C264.055420,44.996780 263.549988,44.991817 262.700684,45.016891 
	C261.264923,45.353733 260.173004,45.660542 259.081116,45.967350 
z"/>
<path fill="#CE43CE" opacity="1.000000" stroke="none" 
	d="
M243.001114,52.999393 
	C246.966690,54.180771 246.966690,54.180771 246.700348,60.020725 
	C243.388062,60.341110 239.973557,60.929028 236.567596,60.882999 
	C235.055435,60.862560 232.439285,59.722546 232.308167,58.806690 
	C232.084915,57.247295 233.582779,55.506725 234.073425,53.762375 
	C234.614136,51.840054 234.834686,49.827679 235.588531,47.446316 
	C236.656769,47.027149 237.331146,47.016197 238.318130,47.044395 
	C239.070984,47.697716 239.511246,48.311882 239.607452,49.012886 
	C238.531204,50.761852 237.798996,52.423985 236.963577,54.320442 
	C239.407959,53.785595 241.204544,53.392494 243.001114,52.999393 
z"/>
<path fill="#D356D3" opacity="1.000000" stroke="none" 
	d="
M239.951508,48.926048 
	C239.511246,48.311882 239.070984,47.697716 238.319611,46.664104 
	C237.093124,45.151443 236.177734,44.058228 235.262344,42.965012 
	C235.282333,39.903744 235.302322,36.842476 235.485809,33.340675 
	C237.741547,32.623081 239.833771,32.346020 242.234161,32.011681 
	C242.567352,37.384933 242.592346,42.815456 242.199707,48.605743 
	C241.171875,48.952354 240.561691,48.939201 239.951508,48.926048 
z"/>
<path fill="#CF48CF" opacity="1.000000" stroke="none" 
	d="
M146.190918,48.338436 
	C147.553360,47.430374 148.966690,46.864853 150.678650,46.484711 
	C150.960480,47.119175 150.943726,47.568256 150.721970,48.127403 
	C150.264114,48.436962 150.091797,48.691086 149.737671,49.224625 
	C149.052765,51.287193 148.630188,53.124981 148.184555,55.063049 
	C150.506271,55.063049 152.185135,55.063049 153.864014,55.063049 
	C156.882904,58.063519 156.632355,59.997902 152.884766,60.741039 
	C150.641510,61.185875 148.048462,61.436840 146.005356,60.694351 
	C144.893829,60.290405 143.958252,57.573589 144.090607,55.996223 
	C144.298782,53.515114 145.475311,51.115246 146.190918,48.338436 
z"/>
<path fill="#D04BD0" opacity="1.000000" stroke="none" 
	d="
M201.008301,39.006458 
	C201.880798,41.245247 202.753311,43.484032 203.887451,45.904884 
	C204.205704,48.294392 204.262329,50.501835 204.659149,53.312859 
	C205.330338,55.542217 205.661316,57.167995 205.992279,58.793774 
	C204.533203,58.943428 203.074142,59.093082 201.268585,58.754799 
	C199.950165,56.859020 198.978241,55.451172 198.313782,53.895210 
	C199.755295,52.948750 200.889328,52.150414 201.752884,51.542500 
	C200.323563,48.283077 199.162399,45.635113 198.001221,42.987144 
	C198.801620,41.751511 199.602020,40.515881 200.701202,39.140095 
	C201.000000,38.999939 201.008301,39.006458 201.008301,39.006458 
M203.737030,56.183823 
	C203.623306,56.027027 203.509583,55.870235 203.395859,55.713444 
	C203.418762,55.931477 203.441666,56.149506 203.737030,56.183823 
z"/>
<path fill="#CF46CF" opacity="1.000000" stroke="none" 
	d="
M211.980743,54.972168 
	C213.511108,53.361992 214.762115,51.111847 216.637909,50.293011 
	C219.388611,49.092266 221.407852,50.266857 221.154297,53.827778 
	C220.995804,56.053833 221.124802,58.300365 221.124802,60.777710 
	C217.344147,60.363564 214.316833,60.031937 211.382553,59.318615 
	C211.643967,57.615330 211.812347,56.293747 211.980743,54.972168 
z"/>
<path fill="#D14ED1" opacity="1.000000" stroke="none" 
	d="
M198.006317,54.043327 
	C198.978241,55.451172 199.950165,56.859020 200.960373,58.601463 
	C198.754135,59.303295 196.509613,59.670525 194.102142,59.698555 
	C193.939209,59.359356 193.932022,59.409126 194.170151,59.190975 
	C194.291946,57.989277 194.175629,57.005730 194.059296,56.022182 
	C194.673035,53.660336 195.286774,51.298485 196.084106,48.290085 
	C196.771835,48.814941 197.389069,49.953419 197.742950,51.168587 
	C198.007050,52.075489 197.930923,53.081470 198.006317,54.043327 
M197.253036,58.172474 
	C197.417068,58.118076 197.581085,58.063683 197.745117,58.009281 
	C197.580200,57.956024 197.415298,57.902767 197.253036,58.172474 
z"/>
<path fill="#DE80DE" opacity="1.000000" stroke="none" 
	d="
M153.868103,54.608078 
	C152.185135,55.063049 150.506271,55.063049 148.184555,55.063049 
	C148.630188,53.124981 149.052765,51.287193 149.760193,49.491322 
	C150.231339,49.743340 150.417633,49.953442 150.603912,50.163544 
	C150.711609,49.448143 150.819290,48.732742 150.926971,48.017338 
	C150.943726,47.568256 150.960480,47.119175 150.980728,46.332779 
	C151.377670,45.747627 151.771133,45.499794 152.371124,45.150421 
	C153.009155,48.083622 153.440659,51.118362 153.868103,54.608078 
z"/>
<path fill="#D45CD4" opacity="1.000000" stroke="none" 
	d="
M198.313782,53.895210 
	C197.930923,53.081470 198.007050,52.075489 197.742950,51.168587 
	C197.389069,49.953419 196.771835,48.814941 196.083847,47.893024 
	C195.828156,46.650612 195.756287,45.158710 195.787140,43.342957 
	C196.359192,43.013615 196.828522,43.008125 197.649536,42.994888 
	C199.162399,45.635113 200.323563,48.283077 201.752884,51.542500 
	C200.889328,52.150414 199.755295,52.948750 198.313782,53.895210 
z"/>
<path fill="#DB75DB" opacity="1.000000" stroke="none" 
	d="
M259.036560,46.367538 
	C260.173004,45.660542 261.264923,45.353733 262.916199,45.298210 
	C264.166351,45.681496 264.857056,45.813492 265.547791,45.945488 
	C265.745728,46.423203 265.943634,46.900909 266.154083,47.638142 
	C265.086243,49.076485 264.005890,50.255306 262.890991,51.823147 
	C259.674438,51.741638 258.516296,49.834538 259.036560,46.367538 
z"/>
<path fill="#CF45CF" opacity="1.000000" stroke="none" 
	d="
M58.843632,35.002514 
	C57.156113,35.027321 55.468597,35.052128 53.452465,35.041893 
	C52.989548,33.971287 52.855240,32.935730 52.698982,31.509529 
	C55.072609,31.515339 57.468189,31.911787 59.844910,32.969566 
	C59.498577,34.088100 59.171104,34.545307 58.843632,35.002514 
z"/>
<path fill="#D868D8" opacity="1.000000" stroke="none" 
	d="
M239.607452,49.012886 
	C240.561691,48.939201 241.171875,48.952354 242.080414,48.943443 
	C242.548798,50.007622 242.718796,51.093864 242.944962,52.589748 
	C241.204544,53.392494 239.407959,53.785595 236.963577,54.320442 
	C237.798996,52.423985 238.531204,50.761852 239.607452,49.012886 
z"/>
<path fill="#D04AD0" opacity="1.000000" stroke="none" 
	d="
M107.731094,26.666718 
	C105.883774,27.957289 103.783333,28.969719 101.285378,29.969557 
	C102.090080,26.930882 103.664116,24.591469 107.731094,26.666718 
z"/>
<path fill="#CF45CF" opacity="1.000000" stroke="none" 
	d="
M52.983391,39.384613 
	C55.573257,39.676922 58.090954,40.366852 60.608654,41.056782 
	C60.584579,41.408676 60.560505,41.760571 60.536430,42.112465 
	C58.286453,42.407990 56.036472,42.703510 53.394390,42.999542 
	C52.971935,41.927452 52.941582,40.854843 52.983391,39.384613 
z"/>
<path fill="#D356D3" opacity="1.000000" stroke="none" 
	d="
M109.067184,37.610954 
	C107.135139,37.442051 105.228836,36.901386 102.963821,36.258987 
	C103.746010,34.805164 104.394241,33.600330 105.184288,32.131905 
	C106.479950,33.168415 107.462372,33.954338 108.737198,34.876205 
	C109.050720,35.754494 109.071823,36.496845 109.067184,37.610954 
z"/>
<path fill="#CF45CF" opacity="1.000000" stroke="none" 
	d="
M59.737350,51.704681 
	C58.626591,52.086769 57.495022,52.163563 56.000511,52.264988 
	C56.000511,50.377445 56.000511,48.600132 56.000256,46.411407 
	C56.000000,46.000000 55.999847,46.000153 55.999847,46.000153 
	C56.955688,46.381714 57.911526,46.763275 58.932762,47.471226 
	C59.237617,48.998203 59.477074,50.198795 59.737350,51.704681 
z"/>
<path fill="#D868D8" opacity="1.000000" stroke="none" 
	d="
M211.658539,54.981598 
	C211.812347,56.293747 211.643967,57.615330 211.125565,58.987667 
	C210.032715,59.002316 209.289871,58.966213 208.279999,58.622299 
	C208.032242,57.832153 208.051544,57.349819 208.070831,56.867485 
	C209.159332,56.242004 210.247833,55.616516 211.658539,54.981598 
z"/>
<path fill="#D14ED1" opacity="1.000000" stroke="none" 
	d="
M208.050629,56.504059 
	C208.051544,57.349819 208.032242,57.832153 208.020447,58.676552 
	C208.027939,59.038620 208.021988,59.010475 207.772324,58.999813 
	C207.350739,58.991642 207.178833,58.994129 207.006912,58.996620 
	C206.836319,58.970310 206.665726,58.944004 206.243713,58.855736 
	C205.661316,57.167995 205.330338,55.542217 204.997620,53.553627 
	C206.007385,54.174091 207.018906,55.157364 208.050629,56.504059 
z"/>
<path fill="#D868D8" opacity="1.000000" stroke="none" 
	d="
M235.179108,43.371952 
	C236.177734,44.058228 237.093124,45.151443 238.007019,46.624950 
	C237.331146,47.016197 236.656769,47.027149 235.646729,47.056591 
	C235.239349,45.976353 235.167618,44.877625 235.179108,43.371952 
z"/>
<path fill="#D04BD0" opacity="1.000000" stroke="none" 
	d="
M195.404938,34.175709 
	C196.838547,34.370514 198.268707,34.850567 199.698868,35.330616 
	C199.596008,35.817204 199.493164,36.303791 199.390305,36.790379 
	C198.391693,36.617847 197.393097,36.445312 196.127838,36.138741 
	C195.707947,35.490116 195.554718,34.975536 195.404938,34.175709 
z"/>
<path fill="#D45CD4" opacity="1.000000" stroke="none" 
	d="
M193.718781,56.110302 
	C194.175629,57.005730 194.291946,57.989277 194.180939,59.178341 
	C193.292404,58.496288 192.631210,57.608719 191.987946,56.354424 
	C192.463318,56.057941 192.920807,56.128181 193.718781,56.110302 
z"/>
<path fill="#D04AD0" opacity="1.000000" stroke="none" 
	d="
M103.477318,41.710480 
	C104.508041,41.604977 105.671288,41.839493 106.944580,42.439491 
	C105.906372,42.553482 104.758102,42.301994 103.477318,41.710480 
z"/>
<path fill="#D04BD0" opacity="1.000000" stroke="none" 
	d="
M203.261749,34.806030 
	C202.540680,34.751839 201.995026,34.483414 201.449387,34.214989 
	C202.012482,33.811741 202.575577,33.408489 203.459778,32.997490 
	C203.666306,33.523758 203.551743,34.057781 203.261749,34.806030 
z"/>
<path fill="#CF45CF" opacity="1.000000" stroke="none" 
	d="
M50.729298,24.979008 
	C50.821762,25.575609 50.643066,26.133232 50.212101,26.853764 
	C50.125935,26.324459 50.292038,25.632244 50.729298,24.979008 
z"/>
<path fill="#DB75DB" opacity="1.000000" stroke="none" 
	d="
M264.922821,41.829903 
	C264.504364,41.408352 264.356903,40.901413 264.382690,40.255875 
	C264.768555,40.659691 264.981201,41.202103 264.922821,41.829903 
z"/>
<path fill="#CF46CF" opacity="1.000000" stroke="none" 
	d="
M259.830658,36.253983 
	C260.396118,36.390476 260.983032,36.711437 261.569977,37.032394 
	C261.115479,37.121410 260.660980,37.210426 260.047302,37.053772 
	C259.888153,36.808102 259.852142,36.438442 259.830658,36.253983 
z"/>
<path fill="#CF46CF" opacity="1.000000" stroke="none" 
	d="
M264.978455,36.647484 
	C264.625122,36.384483 264.313629,35.769829 264.252686,35.085106 
	C264.675598,35.441967 264.847931,35.868900 264.978455,36.647484 
z"/>
<path fill="#CF45CF" opacity="1.000000" stroke="none" 
	d="
M49.749229,29.181950 
	C50.254879,29.445517 50.604870,29.928534 50.977020,30.725548 
	C50.530640,30.493498 50.062103,29.947449 49.749229,29.181950 
z"/>
<path fill="#CF46CF" opacity="1.000000" stroke="none" 
	d="
M265.541107,45.700871 
	C264.857056,45.813492 264.166351,45.681496 263.260101,45.268177 
	C263.549988,44.991817 264.055420,44.996780 264.944946,45.006870 
	C265.329071,45.011997 265.534424,45.456253 265.541107,45.700871 
z"/>
<path fill="#D04AD0" opacity="1.000000" stroke="none" 
	d="
M117.574310,36.222885 
	C118.004654,36.133823 118.372192,36.300056 118.852493,36.640736 
	C118.480675,36.702847 117.996086,36.590511 117.574310,36.222885 
z"/>
<path fill="#D868D8" opacity="1.000000" stroke="none" 
	d="
M207.075989,59.205544 
	C207.178833,58.994129 207.350739,58.991642 207.779907,59.009354 
	C207.739792,59.157856 207.442444,59.286160 207.075989,59.205544 
z"/>
<path fill="#CF45CF" opacity="1.000000" stroke="none" 
	d="
M50.140411,60.245537 
	C50.373859,60.089481 50.583588,60.221954 50.856812,60.572212 
	C50.957932,60.730442 50.501366,60.774307 50.501366,60.774307 
	C50.501366,60.774307 50.154316,60.474503 50.140411,60.245537 
z"/>
<path fill="#F7E0F7" opacity="1.000000" stroke="none" 
	d="
M29.478222,48.725533 
	C32.503899,47.453030 35.066116,43.732601 38.433010,47.251408 
	C39.122726,47.972248 39.367027,49.119267 39.816647,50.069839 
	C37.292507,50.722240 34.794037,51.514847 32.236195,51.983200 
	C30.146639,52.365807 28.539953,51.812778 29.478222,48.725533 
z"/>
<path fill="#F8E2F8" opacity="1.000000" stroke="none" 
	d="
M36.732132,34.505447 
	C36.850548,36.072582 36.743526,37.316769 36.639183,38.529808 
	C34.828178,38.208382 33.366974,38.108414 32.022568,37.659023 
	C30.983019,37.311543 30.089771,36.526382 29.131485,35.935799 
	C30.146135,35.186115 31.075329,34.026070 32.197433,33.792393 
	C33.548199,33.511101 35.062943,34.017250 36.732132,34.505447 
z"/>
<path fill="#FEF9FE" opacity="1.000000" stroke="none" 
	d="
M58.908699,35.415932 
	C59.171104,34.545307 59.498577,34.088100 59.926598,33.365383 
	C62.013134,33.054359 64.018982,32.827961 65.976349,33.042950 
	C66.895279,33.143879 67.720825,34.095001 68.588692,34.660831 
	C67.950867,35.479832 67.457619,36.789478 66.648705,37.027851 
	C63.989082,37.811565 60.880524,40.206100 58.908699,35.415932 
z"/>
<path fill="#CF45CF" opacity="1.000000" stroke="none" 
	d="
M56.000076,45.999924 
	C55.547752,45.847130 55.095352,45.694412 54.642952,45.541691 
	C54.775841,45.261375 54.908722,44.981056 55.041603,44.700737 
	C55.349720,44.963554 55.657833,45.226372 55.982899,45.744671 
	C55.999847,46.000153 56.000000,46.000000 56.000076,45.999924 
z"/>
<path fill="#D04BD0" opacity="1.000000" stroke="none" 
	d="
M200.996643,38.995686 
	C201.089966,38.958687 201.186630,38.925941 201.145798,38.949829 
	C201.008301,39.006458 201.000000,38.999939 200.996643,38.995686 
z"/>
<path fill="#D04AD0" opacity="1.000000" stroke="none" 
	d="
M150.721985,48.127403 
	C150.819290,48.732742 150.711609,49.448143 150.603912,50.163544 
	C150.417633,49.953442 150.231339,49.743340 150.022522,49.266541 
	C150.091797,48.691086 150.264114,48.436962 150.721985,48.127403 
z"/>
<path fill="#D14ED1" opacity="1.000000" stroke="none" 
	d="
M203.600800,56.275681 
	C203.441666,56.149506 203.418762,55.931477 203.395859,55.713440 
	C203.509583,55.870235 203.623306,56.027027 203.600800,56.275681 
z"/>
<path fill="#D45CD4" opacity="1.000000" stroke="none" 
	d="
M197.251709,58.010994 
	C197.415298,57.902767 197.580200,57.956024 197.745117,58.009285 
	C197.581085,58.063683 197.417068,58.118076 197.251709,58.010994 
z"/>
</svg>